PathFileType	4	(X/Y/Z)	G:\マイドライブ\biomec\experimentalData\240725\CJ1.trc
DataRate	CameraRate	NumFrames	NumMarkers	Units	OrigDataRate	OrigDataStartFrame	OrigNumFrames
200.00	200.00	      4	52	mm	200.00	1385	      1582
Frame#	Time	handR			wrRI			wrRO			elbRI			elbRO			shRF			shRU			shRB			handL			wrLI			wrLO			elbLI			elbLO			shLF			shLU			shLB			toeR			baRI			baRO			heelR			anRI			anRO			knRI			knRO			troR			toeL			baLI			baLO			heelL			anLI			anLO			knLI			knLO			troL			head			earR			earL			clav			c7			ribR			ribL			xiph			ASISR			ASISL			PSISR			PSISL			t8			t11			L1			L3			LS			COX			
		X1	Y1	Z1	X2	Y2	Z2	X3	Y3	Z3	X4	Y4	Z4	X5	Y5	Z5	X6	Y6	Z6	X7	Y7	Z7	X8	Y8	Z8	X9	Y9	Z9	X10	Y10	Z10	X11	Y11	Z11	X12	Y12	Z12	X13	Y13	Z13	X14	Y14	Z14	X15	Y15	Z15	X16	Y16	Z16	X17	Y17	Z17	X18	Y18	Z18	X19	Y19	Z19	X20	Y20	Z20	X21	Y21	Z21	X22	Y22	Z22	X23	Y23	Z23	X24	Y24	Z24	X25	Y25	Z25	X26	Y26	Z26	X27	Y27	Z27	X28	Y28	Z28	X29	Y29	Z29	X30	Y30	Z30	X31	Y31	Z31	X32	Y32	Z32	X33	Y33	Z33	X34	Y34	Z34	X35	Y35	Z35	X36	Y36	Z36	X37	Y37	Z37	X38	Y38	Z38	X39	Y39	Z39	X40	Y40	Z40	X41	Y41	Z41	X42	Y42	Z42	X43	Y43	Z43	X44	Y44	Z44	X45	Y45	Z45	X46	Y46	Z46	X47	Y47	Z47	X48	Y48	Z48	X49	Y49	Z49	X50	Y50	Z50	X51	Y51	Z51	X52	Y52	Z52	

1385	6.920	282.35928	1431.94275	1039.75635	222.82985	1468.10999	1007.88617	264.92657	1514.91431	1044.20752	125.91548	1628.85840	1170.78052	75.53168	1566.03601	1183.37866	262.80209	1443.94934	1400.87683	242.97635	1553.18262	1396.07703	234.88972	1499.53760	1429.47510	571.73615	1417.00586	1054.13196	651.57111	1453.85791	1038.81494	602.72498	1485.44714	1087.75244	756.02417	1600.21875	1199.49084	805.77814	1531.92554	1207.58301	586.47437	1420.63611	1405.34253	621.50641	1471.69519	1434.76782	609.27002	1535.32056	1392.81799	269.86914	1386.80847	50.77401	327.11234	1461.90186	37.92025	206.27802	1500.95288	44.59090	321.28284	1669.01526	43.13266	344.89975	1578.92505	118.11732	255.96977	1611.43628	108.03956	358.00562	1550.50195	474.43878	253.80206	1548.06140	479.83646	256.10803	1478.08826	873.47729	677.58044	1391.09924	55.08842	614.15570	1449.31335	53.68581	715.98975	1501.25964	53.83427	609.04724	1668.36462	43.91290	579.99323	1567.09778	130.41252	664.30359	1610.91870	117.32957	530.81458	1532.44812	475.01379	634.28558	1538.77905	493.86401	599.74945	1476.56152	869.96692	420.59674	1481.81018	1708.56140	334.47537	1413.15991	1553.39294	489.74484	1382.88391	1561.83545	424.99655	1404.28284	1392.77271	436.18903	1523.29675	1473.60010	324.64395	1423.75989	1090.65149	540.72211	1412.97156	1088.52185	426.02264	1373.80579	1235.88562	321.20248	1403.72180	958.16547	543.05011	1407.25366	968.82062	371.67526	1574.54736	1000.30280	491.63913	1571.43298	1003.28973	442.36923	1591.92200	1260.53613	438.72607	1576.20422	1133.22827	438.58862	1565.75793	1075.42517	433.24118	1569.67407	1031.45093	433.54056	1583.90222	994.61206	433.47351	1615.29980	893.64825	
1386	6.925	282.29681	1432.12561	1039.69470	222.73946	1468.22034	1007.76996	264.79739	1515.05334	1044.11548	125.54309	1629.40869	1170.33667	75.17453	1566.46777	1182.96960	262.34952	1444.52527	1400.78882	242.43748	1553.74561	1395.77283	234.41487	1500.14978	1429.28735	571.70343	1417.87146	1054.29163	651.64001	1454.75330	1039.21704	602.68579	1486.23840	1087.95667	755.02179	1601.15784	1198.81335	805.38092	1532.75720	1207.93079	586.08020	1421.58179	1405.53491	620.95398	1472.62756	1435.04285	608.77985	1536.20544	1393.09204	269.89566	1386.80640	50.75585	327.13608	1461.89978	37.89423	206.24562	1501.12732	44.67611	321.28333	1669.00745	43.11715	344.87729	1578.90857	118.09875	255.91911	1611.40100	107.99809	357.95126	1550.54773	474.44327	253.79126	1548.01099	479.84439	256.04742	1478.02136	873.44574	677.59216	1391.10254	55.08890	614.15350	1449.32751	53.69406	716.00531	1501.27197	53.83247	609.06927	1668.35339	43.87719	580.01715	1567.13562	130.42545	664.32294	1610.93726	117.31865	530.78961	1532.76599	474.94574	634.25073	1539.07336	493.81888	599.75299	1476.96899	870.04456	419.49304	1482.92517	1708.50745	334.96262	1414.35852	1553.35925	489.91000	1382.62219	1562.25757	424.60706	1405.01404	1392.80920	435.55136	1524.12988	1473.50549	324.55899	1424.01379	1090.64148	540.84521	1413.46753	1088.81238	425.91013	1374.39221	1235.95959	321.26300	1403.77893	958.18542	543.14899	1407.76941	968.84454	371.46240	1574.74158	1000.05994	491.46091	1572.06006	1003.19891	441.90503	1592.53284	1260.46045	438.54092	1576.61426	1133.14929	438.36035	1566.14807	1075.32788	432.91617	1570.04846	1031.30688	433.24548	1584.24438	994.44067	433.29428	1615.51233	893.44501	
1387	6.930	282.21597	1432.26599	1039.65637	222.67915	1468.31238	1007.64056	264.66739	1515.24097	1043.96423	125.29545	1629.79041	1169.87598	74.89552	1566.79492	1182.56079	262.05112	1445.12012	1400.67920	241.87785	1554.45764	1395.39319	233.92400	1500.87122	1429.06445	571.80652	1418.67212	1054.46411	651.62036	1455.57471	1039.41931	602.60931	1487.06812	1088.12048	754.13751	1601.46741	1198.99304	805.08978	1533.74670	1208.26086	585.69598	1422.30322	1405.78699	620.49023	1473.62793	1435.32813	608.36060	1537.09863	1393.34265	269.90479	1386.79773	50.75564	327.13968	1461.89124	37.88343	206.27531	1501.10522	44.69757	321.22745	1669.04761	43.13376	344.87894	1578.91199	118.10725	255.91772	1611.37756	107.99732	357.85052	1550.62537	474.47751	253.79373	1547.96716	479.81946	256.02704	1477.93127	873.42065	677.72845	1391.01868	55.27681	614.18304	1449.34497	53.70197	716.04919	1501.26868	53.78758	609.07739	1668.37622	43.85361	580.05328	1567.15149	130.40195	664.35590	1610.97766	117.26822	530.78564	1533.09180	474.90274	634.24762	1539.33972	493.79391	599.75330	1477.53015	869.88721	418.47516	1484.16418	1708.34167	334.26651	1415.39429	1553.13770	488.89154	1383.73584	1562.57104	424.25620	1405.73840	1392.85999	435.14044	1524.85034	1473.47583	324.49597	1424.27161	1090.61523	540.97070	1414.22717	1089.01355	425.84387	1375.09143	1236.05029	321.36279	1403.83496	958.20581	543.23999	1408.24915	968.84607	371.25012	1574.90784	999.86853	491.36490	1572.64148	1003.13855	441.54367	1593.25769	1260.36841	438.33167	1577.09729	1133.01611	438.14545	1566.53467	1075.24500	432.65317	1570.41016	1031.13159	432.94858	1584.60352	994.29944	433.14301	1615.72241	893.26953	
1388	6.935	282.18878	1432.42322	1039.60095	222.65407	1468.38403	1007.47180	264.61554	1515.36267	1043.77344	125.10918	1630.01721	1169.44592	74.59779	1567.07324	1182.08154	261.71228	1445.78955	1400.47119	241.55768	1554.97595	1395.08521	233.48401	1501.56409	1428.78870	571.97089	1419.22205	1054.57153	651.63922	1456.33765	1039.56299	602.62524	1487.77380	1088.24426	753.60370	1602.83167	1199.46375	804.87225	1534.80725	1208.79980	585.38080	1423.18518	1406.04517	620.02643	1474.55725	1435.56848	607.95276	1537.88037	1393.55481	269.93460	1386.80933	50.75235	327.14868	1461.91382	37.88591	206.37488	1500.91541	44.66291	321.23227	1669.03735	43.14832	344.88150	1578.96765	118.14659	255.86395	1611.33850	107.99527	357.86328	1550.71704	474.54614	253.76758	1547.90405	479.82361	256.01691	1477.83752	873.40930	677.61572	1391.10999	55.08413	614.21429	1449.32544	53.73234	716.03955	1501.24609	53.82271	609.08557	1668.37659	43.84381	580.07483	1567.18396	130.40187	664.40784	1610.99182	117.23742	530.78210	1533.39185	474.86887	634.21625	1539.66260	493.76880	599.71124	1478.04602	869.79718	417.65347	1485.20581	1708.28271	332.46213	1416.02734	1552.78552	487.34430	1385.56482	1562.59973	423.84692	1406.30884	1392.89697	434.55139	1525.71155	1473.43848	324.45255	1424.49048	1090.60876	541.06036	1415.07520	1089.17395	425.78970	1375.64966	1236.16028	321.50504	1403.87988	958.25330	543.36127	1408.67859	968.84650	371.08719	1575.04919	999.72339	491.16080	1573.20984	1003.02588	441.25848	1593.82446	1260.17480	438.10464	1577.54395	1132.88464	437.92236	1566.97449	1075.13989	432.47656	1570.69104	1030.92554	432.70898	1584.92639	994.18372	433.01743	1615.93884	893.13031	
